<svg xmlns="http://www.w3.org/2000/svg" version="1.1" xmlns:xlink="http://www.w3.org/1999/xlink" xmlns:svgjs="http://svgjs.dev/svgjs" width="1500" height="1500" viewBox="0 0 1500 1500"><rect width="1500" height="1500" fill="#ffffff"></rect><g transform="matrix(0.6666666666666666,0,0,0.6666666666666666,248.76890756302515,621.715648524003)"><svg viewBox="0 0 357 91" data-background-color="#ffffff" preserveAspectRatio="xMidYMid meet" height="382" width="1500" xmlns="http://www.w3.org/2000/svg" xmlns:xlink="http://www.w3.org/1999/xlink"><g id="tight-bounds" transform="matrix(1,0,0,1,0.43950000000003797,0.3398271635434469)"><svg viewBox="0 0 356.12052 90.3203456729131" height="90.3203456729131" width="356.12052"><g><svg viewBox="0 0 356.12052 90.3203456729131" height="90.3203456729131" width="356.12052"><g><svg viewBox="0 0 356.12052 90.3203456729131" height="90.3203456729131" width="356.12052"><g><path d="M0 90.32v-90.32h356.121v90.32z" fill="#10847e" stroke="transparent" stroke-width="0" rx="0%" data-fill-palette-color="tertiary"></path><path d="M3.283 87.037v-83.754h349.554v83.754z" fill="#ffffff" stroke="transparent" stroke-width="0" rx="0%" data-fill-palette-color="quaternary"></path><path d="M9.85 80.47v-70.62h336.421v70.62z" fill="#10847e" stroke="transparent" stroke-width="0" data-fill-palette-color="tertiary"></path></g><g transform="matrix(1,0,0,1,19.69974,19.69974)" id="textblocktransform"><svg viewBox="0 0 316.72104 50.920865672913116" height="50.920865672913116" width="316.72104" id="textblock"><g><svg viewBox="0 0 316.72104 50.920865672913116" height="50.920865672913116" width="316.72104"><g transform="matrix(1,0,0,1,0,0)"><svg width="316.72104" viewBox="4.6 -37.5 234.78 37.75" height="50.920865672913116" data-palette-color="#ffffff"><path d="M4.6 0L4.6-35 11.45-35 23.55-11.25 35.55-35 42.4-35 42.4 0 36.95 0 36.9-26.75 25.4-3.65 21.65-3.65 10.05-26.75 10.05 0 4.6 0ZM53.4-15.2L69.65-15.2Q69.55-17.45 68.62-19.03 67.7-20.6 66.05-21.48 64.4-22.35 62.25-22.35L62.25-22.35Q59.85-22.35 58.07-21.25 56.3-20.15 55.3-18.18 54.3-16.2 54.3-13.55L54.3-13.55Q54.3-10.7 55.37-8.6 56.45-6.5 58.37-5.35 60.3-4.2 62.8-4.2L62.8-4.2Q67.25-4.2 70.3-7.35L70.3-7.35 73.35-4.3Q71.4-2.15 68.6-0.98 65.8 0.2 62.35 0.2L62.35 0.2Q58.25 0.2 55.2-1.5 52.15-3.2 50.45-6.23 48.75-9.25 48.75-13.25L48.75-13.25Q48.75-17.25 50.45-20.28 52.15-23.3 55.2-25 58.25-26.7 62.2-26.75L62.2-26.75Q66.9-26.75 69.75-24.83 72.6-22.9 73.8-19.4 75-15.9 74.65-11.1L74.65-11.1 53.4-11.1 53.4-15.2ZM90.8-26.8L90.8-26.8Q94.5-26.8 97.07-25.18 99.65-23.55 101.02-20.53 102.4-17.5 102.35-13.3L102.35-13.3Q102.4-9.1 101.05-6.05 99.7-3 97.12-1.38 94.55 0.25 90.9 0.25L90.9 0.25Q87.1 0.25 84.22-1.48 81.35-3.2 79.75-6.28 78.15-9.35 78.15-13.35L78.15-13.35Q78.15-17.35 79.75-20.38 81.35-23.4 84.2-25.1 87.05-26.8 90.8-26.8ZM92.1-22.15L92.1-22.15Q89.7-22.15 87.85-21 86-19.85 84.97-17.82 83.95-15.8 83.9-13.2L83.9-13.2Q83.95-10.6 84.97-8.6 86-6.6 87.85-5.45 89.7-4.3 92.1-4.3L92.1-4.3Q94.5-4.3 96.35-5.45 98.2-6.6 99.22-8.6 100.25-10.6 100.25-13.2L100.25-13.2Q100.25-15.85 99.22-17.85 98.2-19.85 96.35-21 94.5-22.15 92.1-22.15ZM100.25 0L100.25-37.1 106-37.1 106 0 100.25 0ZM114.74 0L114.74-26.55 120.44-26.55 120.44 0 114.74 0ZM117.59-37.5L117.59-37.5Q119.04-37.5 119.99-36.55 120.94-35.6 120.94-34.15L120.94-34.15Q120.94-32.75 119.99-31.78 119.04-30.8 117.59-30.8L117.59-30.8Q116.19-30.8 115.22-31.78 114.24-32.75 114.24-34.15L114.24-34.15Q114.24-35.6 115.22-36.55 116.19-37.5 117.59-37.5ZM150.84-22.65L147.69-18.95Q146.29-20.4 144.39-21.2 142.49-22 140.09-22L140.09-22Q137.79-22 135.99-20.9 134.19-19.8 133.19-17.82 132.19-15.85 132.19-13.25L132.19-13.25Q132.19-10.65 133.19-8.68 134.19-6.7 135.99-5.58 137.79-4.45 140.09-4.45L140.09-4.45Q142.59-4.45 144.59-5.28 146.59-6.1 147.94-7.7L147.94-7.7 151.14-4.55Q149.34-2.3 146.47-1.05 143.59 0.2 139.84 0.2L139.84 0.2Q135.89 0.2 132.87-1.5 129.84-3.2 128.14-6.23 126.44-9.25 126.44-13.25L126.44-13.25Q126.44-17.25 128.14-20.28 129.84-23.3 132.87-25.03 135.89-26.75 139.84-26.75L139.84-26.75Q143.44-26.75 146.22-25.68 148.99-24.6 150.84-22.65L150.84-22.65ZM157.39 0L157.39-37.1 163.14-37.1 163.14 0 157.39 0ZM171.89 0L171.89-26.55 177.59-26.55 177.59 0 171.89 0ZM174.74-37.5L174.74-37.5Q176.19-37.5 177.14-36.55 178.09-35.6 178.09-34.15L178.09-34.15Q178.09-32.75 177.14-31.78 176.19-30.8 174.74-30.8L174.74-30.8Q173.34-30.8 172.36-31.78 171.39-32.75 171.39-34.15L171.39-34.15Q171.39-35.6 172.36-36.55 173.34-37.5 174.74-37.5ZM207.98-22.65L204.83-18.95Q203.43-20.4 201.53-21.2 199.63-22 197.23-22L197.23-22Q194.93-22 193.13-20.9 191.33-19.8 190.33-17.82 189.33-15.85 189.33-13.25L189.33-13.25Q189.33-10.65 190.33-8.68 191.33-6.7 193.13-5.58 194.93-4.45 197.23-4.45L197.23-4.45Q199.73-4.45 201.73-5.28 203.73-6.1 205.08-7.7L205.08-7.7 208.28-4.55Q206.48-2.3 203.61-1.05 200.73 0.2 196.98 0.2L196.98 0.2Q193.03 0.2 190.01-1.5 186.98-3.2 185.28-6.23 183.58-9.25 183.58-13.25L183.58-13.25Q183.58-17.25 185.28-20.28 186.98-23.3 190.01-25.03 193.03-26.75 196.98-26.75L196.98-26.75Q200.58-26.75 203.36-25.68 206.13-24.6 207.98-22.65L207.98-22.65ZM214.53 0L214.53-37.1 220.28-37.1 220.28 0 214.53 0ZM219.83-13.9L232.03-26.55 238.63-26.55 219.83-7.05 219.83-13.9ZM223.98-13.65L228.23-17.1 239.38 0 232.58 0 223.98-13.65Z" opacity="1" transform="matrix(1,0,0,1,0,0)" fill="#ffffff" class="wordmark-text-0" data-fill-palette-color="quaternary" id="text-0"></path></svg></g></svg></g></svg></g></svg></g><g></g></svg></g><defs></defs></svg><rect width="356.12052" height="90.3203456729131" fill="none" stroke="none" visibility="hidden"></rect></g></svg></g></svg>