<?xml version="1.0" encoding="utf-8"?>
<!-- Generator: Adobe Illustrator 19.2.1, SVG Export Plug-In . SVG Version: 6.00 Build 0)  -->
<svg version="1.1" id="layer" xmlns="http://www.w3.org/2000/svg" xmlns:xlink="http://www.w3.org/1999/xlink" x="0px" y="0px"
	 viewBox="0 0 652 652" style="enable-background:new 0 0 652 652;" xml:space="preserve">
<style type="text/css">
	.st0{fill:#10847E;}
</style>
<path class="st0" d="M86.6,402.3c-2.5-0.1-4.9-1.5-6.1-4.4c-1.2-2.8-0.7-5.6,1.5-7.8L92.4,380c1.2-1.1,1.3-1.7,0.1-2.8l-15.9-15.5
	c-1.2-1.2-1.8-1-2.9,0.1l-10.3,10.1c-4.4,4-11.2,1.9-12.4-3.8c-0.5-2.2,0.2-4.5,1.8-6.1l17.2-16.8c2.7-2.7,7.1-2.7,9.8,0
	c0,0,0,0,0,0l29.7,29c2.8,2.7,2.8,6.7,0,9.5l-17.2,16.8C90.9,401.8,89.2,402.4,86.6,402.3L86.6,402.3z M129.2,324.3
	c-0.1,7.4-2,14.3-6.2,20.5c-1.2,1.7-0.9,2.5,0.5,3.7c2,1.7,3.8,3.7,5.7,5.6c2.9,3,3,7.1,0.3,10.1c-2.7,2.8-7.3,3.2-10.2,0.5
	l-13.3-13c-2.8-2.9-2.4-7,0.7-10c4.1-3.9,6.7-9,7.4-14.6c1.8-12.8-8.1-25.4-21.2-26.8c-8.5-0.9-15.7,1.5-21.7,7.5L35,343.3
	c-1.8,1.8-3.9,2.9-6.6,2.6c-2.9-0.4-5.1-1.9-6.2-4.8c-1-2.9-0.3-5.5,1.8-7.5l18.5-18.1l19.9-19.3c21.9-20.4,58.2-9.9,65.6,18.9
	C128.8,318.1,129.2,321.2,129.2,324.3L129.2,324.3z"/>
<path class="st0" d="M171,307.2h25.1c6.2,0,11.2,1.9,15.1,5.7s5.8,8.8,5.8,15.1c0,6.2-2,11.2-6,15c-4,3.8-9.1,5.7-15.5,5.7h-11.9
	v18.7H171L171,307.2L171,307.2z M183.6,317.5v20.9h9.1c3.6,0,6.5-0.9,8.4-2.7c2-1.8,3-4.4,3-7.7s-1-6-3-7.8c-2-1.8-4.8-2.7-8.4-2.7
	L183.6,317.5L183.6,317.5z M224.3,367.4v-63.6h11.9v25.1h0.8c1-2.6,2.9-4.8,5.2-6.2c2.4-1.5,5.3-2.2,8.6-2.2c5,0,8.8,1.5,11.6,4.5
	c2.8,3,4.2,7.3,4.2,12.8v29.6h-12.1v-26.7c0-3.2-0.7-5.6-2.2-7.2c-1.5-1.7-3.5-2.5-6.3-2.5c-3,0-5.4,0.9-7,2.7
	c-1.7,1.8-2.5,4.3-2.5,7.3v26.4L224.3,367.4L224.3,367.4z M289.3,368.1c-4.4,0-8.1-1.3-10.9-3.8c-2.8-2.5-4.2-5.9-4.2-10.1
	c0-4.1,1.5-7.4,4.6-9.8c3.1-2.4,7.5-3.7,13.2-4.1l11.1-0.7v-3.8c0-1.9-0.7-3.4-2-4.4c-1.3-1-3.3-1.6-5.8-1.6c-4.5,0-7.3,1.4-8.3,4.3
	h-11.2c0.4-4.3,2.4-7.6,6-10.1c3.6-2.5,8.3-3.7,14.1-3.7c6.1,0,10.7,1.4,14.1,4.1c3.3,2.7,5,6.6,5,11.5v31.4h-11.7v-6h-0.8
	c-1.2,2.1-3,3.8-5.3,5C295,367.5,292.3,368.1,289.3,368.1L289.3,368.1z M293.3,358.9c2.8,0,5.2-0.8,7-2.4s2.8-3.5,2.8-5.9v-3.4
	l-9.3,0.6c-5.2,0.4-7.8,2.2-7.8,5.5c0,1.7,0.7,3,2,4C289.4,358.4,291.2,358.9,293.3,358.9z M325.4,367.4v-46h11.7v7.3h0.8
	c0.6-2.3,2-4.3,4.2-5.8c2.2-1.5,4.7-2.3,7.6-2.3c2.1,0,3.7,0.2,4.8,0.6v11.1c-1.3-0.5-3.2-0.8-5.8-0.8c-3.4,0-6.1,0.9-8.1,2.8
	c-2,1.9-3.1,4.4-3.1,7.6v25.5H325.4L325.4,367.4z M361.4,367.4v-46h11.7v7.5h0.8c0.9-2.6,2.5-4.7,4.8-6.2c2.3-1.5,4.9-2.3,7.9-2.3
	c3.2,0,5.9,0.8,8.1,2.2c2.2,1.5,3.7,3.6,4.6,6.3h0.8c1.1-2.6,2.9-4.6,5.3-6.2c2.5-1.6,5.3-2.3,8.5-2.3c4.6,0,8.2,1.4,10.9,4.2
	c2.7,2.8,4,6.5,4,11.3v31.6h-12.1V339c0-5.5-2.6-8.2-7.7-8.2c-2.4,0-4.4,0.8-5.9,2.3c-1.5,1.5-2.2,3.6-2.2,6v28.2h-11.7v-28.8
	c0-2.4-0.7-4.3-2-5.6c-1.3-1.3-3.2-2-5.6-2c-2.2-0.1-4.4,0.8-5.8,2.5c-1.5,1.7-2.3,3.8-2.3,6.3v27.7L361.4,367.4L361.4,367.4z
	 M480,356.6v10.8h-39.9v-60.2H480v10.8h-27.3V332h25.7v10h-25.7v14.6H480z M501.2,368.1c-4.4,0-8.1-1.3-10.9-3.8
	c-2.8-2.5-4.2-5.9-4.2-10.1c0-4.1,1.5-7.4,4.6-9.8c3.1-2.4,7.5-3.7,13.2-4.1l11.1-0.7v-3.8c0-1.9-0.7-3.4-2-4.4
	c-1.3-1-3.3-1.6-5.8-1.6c-4.5,0-7.3,1.4-8.3,4.3h-11.2c0.4-4.3,2.4-7.6,6-10.1c3.6-2.5,8.3-3.7,14.1-3.7c6.1,0,10.7,1.4,14.1,4.1
	c3.3,2.7,5,6.6,5,11.5v31.4h-11.7v-6h-0.8c-1.2,2.1-3,3.8-5.3,5C506.9,367.5,504.2,368.1,501.2,368.1z M505.2,358.9
	c2.8,0,5.2-0.8,7-2.4s2.8-3.5,2.8-5.9v-3.4l-9.3,0.6c-5.2,0.4-7.8,2.2-7.8,5.5c0,1.7,0.7,3,2,4C501.3,358.4,503.1,358.9,505.2,358.9
	z M534.5,334.9c-0.1-4.2,1.9-8.1,5.3-10.5c3.5-2.7,8.1-4,13.9-4c5.8,0,10.4,1.2,13.7,3.5s5.1,5.7,5.5,10.1h-11.2
	c-0.3-1.5-1.2-2.8-2.5-3.5c-1.4-0.8-3.2-1.3-5.4-1.3c-2.2,0-4,0.5-5.4,1.4s-2.1,2.1-2.1,3.5c0,1.1,0.5,2,1.5,2.8
	c1,0.7,2.6,1.3,4.7,1.8l8.6,1.9c4.5,1,7.7,2.5,9.8,4.5s3.1,4.7,3.1,8.1c0,4.6-1.9,8.2-5.6,11c-3.7,2.8-8.6,4.2-14.7,4.2
	c-6.1,0-10.9-1.2-14.4-3.6c-3.5-2.4-5.5-5.8-5.9-10.2h11.8c1,3.3,3.9,4.9,8.7,4.9c2.4,0,4.3-0.5,5.8-1.4s2.2-2.1,2.2-3.6
	c0-1.1-0.5-2.1-1.4-2.8c-0.9-0.7-2.4-1.3-4.4-1.7l-8.3-1.9c-4.5-1-7.8-2.5-10-4.7S534.5,338.4,534.5,334.9L534.5,334.9z
	 M584.9,384.1c-2.6,0-4.1,0-4.6-0.1v-9.8c0.3,0.1,1.2,0.1,2.8,0.1c2.3,0,4.1-0.4,5.4-1.2s2.2-2,2.7-3.8l0.4-1.7l-16.1-46.3h13.4
	l9.7,34.9h0.8l9.7-34.9h12.8L606,368.1c-1.9,5.9-4.5,10-7.6,12.4C595.1,382.9,590.7,384.1,584.9,384.1L584.9,384.1z M175.1,279.5
	h-4.9l7.8-33.5h-11.5l0.9-3.9h27.8l-0.8,3.9H183L175.1,279.5L175.1,279.5z M204.4,251c1.6,0,3.2,0.4,4.6,1.3
	c1.3,0.8,2.4,2.1,3.2,3.6h0.3l1.9-4.4h3.6l-6.6,28h-3.8l0.7-5.3h-0.2c-3.4,3.9-6.9,5.9-10.7,5.9c-2.6,0-4.7-0.8-6.2-2.5
	s-2.2-4-2.2-6.9c0-3.5,0.7-6.8,2-9.9s3.2-5.4,5.5-7.1C199,251.9,201.6,251,204.4,251L204.4,251z M199,276.5c1.8,0,3.6-0.8,5.5-2.4
	c1.8-1.6,3.3-3.6,4.4-6.2c1.1-2.5,1.7-5.1,1.7-7.6c0-1.8-0.5-3.2-1.6-4.2c-1.1-1-2.4-1.6-4.2-1.6c-2,0-3.8,0.7-5.5,2.2
	c-1.7,1.5-3,3.4-4,6c-1,2.5-1.5,5.2-1.4,7.9c0,1.9,0.4,3.4,1.3,4.4S197.5,276.5,199,276.5L199,276.5z M228.1,265.2l14.9-13.7h5.7
	l-13.2,11.9l8.3,16.1h-5.3l-6.6-13.4l-4.3,3.1l-2.3,10.2h-4.8l9.3-39.8h4.8l-3.6,15.4L228.1,265.2L228.1,265.2L228.1,265.2
	L228.1,265.2z M259.6,280c-3.5,0-6.2-0.9-8.2-2.8c-2-1.9-3-4.4-3-7.7c0-3.2,0.7-6.3,2.1-9.2c1.4-2.9,3.3-5.2,5.6-6.9
	c2.2-1.6,4.9-2.5,7.7-2.4c2.9,0,5,0.6,6.5,1.7s2.2,2.7,2.2,4.7c0,3.1-1.6,5.5-4.7,7.2c-3.1,1.8-7.6,2.6-13.4,2.6h-0.9l-0.1,2
	c0,2.2,0.6,4,1.7,5.2s2.9,1.9,5.4,1.9c1.2,0,2.5-0.2,3.7-0.5c1.3-0.3,2.8-0.9,4.7-1.7v3.7c-1.5,0.7-3.1,1.2-4.7,1.6
	C262.7,279.9,261.3,280,259.6,280L259.6,280z M263.6,254.6c-1.9,0-3.8,0.8-5.5,2.4s-3,3.8-3.9,6.7h0.3c4.3,0,7.6-0.5,9.9-1.5
	c2.3-1,3.4-2.5,3.4-4.4c0-0.9-0.4-1.7-1-2.3C266.1,254.9,265,254.6,263.6,254.6L263.6,254.6z M291.2,279.6h-4.7l6.6-28h4.7
	L291.2,279.6z M294.4,244.3c0-1,0.3-1.7,0.9-2.3c0.6-0.6,1.4-0.9,2.3-0.9c1.7,0,2.5,0.8,2.5,2.3c0,0.9-0.3,1.7-0.9,2.4
	c-0.6,0.7-1.4,1-2.2,1c-0.8,0-1.4-0.2-1.9-0.6C294.6,245.7,294.4,245.1,294.4,244.3L294.4,244.3z M310.6,276.5c1,0,2.4-0.2,4.1-0.7
	v3.3c-0.8,0.3-1.6,0.5-2.4,0.6c-0.7,0.1-1.5,0.2-2.3,0.3c-2.3,0-4.2-0.5-5.4-1.5c-1.3-1-1.9-2.5-1.9-4.5c0-1.1,0.2-2.4,0.5-3.8
	l3.6-15.4H302l0.4-1.9l5.2-2l3.5-5.8h2.8l-1.6,6.5h7.7l-0.7,3.3h-7.7l-3.6,15.4c-0.3,1.5-0.5,2.6-0.5,3.4c0,1,0.3,1.7,0.8,2.2
	C308.9,276.3,309.7,276.5,310.6,276.5L310.6,276.5z M342.7,280c-3.5,0-6.2-0.9-8.2-2.8c-2-1.9-3-4.4-3-7.7c0-3.2,0.7-6.3,2.1-9.2
	c1.4-2.9,3.3-5.2,5.6-6.9c2.2-1.6,4.9-2.5,7.7-2.4c2.9,0,5,0.6,6.5,1.7c1.5,1.1,2.2,2.7,2.2,4.7c0,3.1-1.6,5.5-4.7,7.2
	s-7.6,2.6-13.4,2.6h-0.9l-0.1,2c0,2.2,0.6,4,1.7,5.2c1.2,1.3,2.9,1.9,5.4,1.9c1.2,0,2.5-0.2,3.7-0.5c1.3-0.3,2.8-0.9,4.7-1.7v3.7
	c-1.5,0.7-3.1,1.2-4.7,1.6C345.8,279.9,344.4,280,342.7,280L342.7,280z M346.7,254.6c-1.9,0-3.8,0.8-5.5,2.4c-1.7,1.6-3,3.8-3.9,6.7
	h0.3c4.3,0,7.6-0.5,9.9-1.5c2.3-1,3.4-2.5,3.4-4.4c0-0.9-0.4-1.7-1-2.3C349.2,254.9,348.1,254.6,346.7,254.6L346.7,254.6z
	 M374.7,251c1.6,0,3.2,0.4,4.6,1.3c1.3,0.8,2.4,2.1,3.2,3.6h0.3l1.9-4.4h3.6l-6.6,28H378l0.7-5.3h-0.2c-3.4,3.9-6.9,5.9-10.7,5.9
	c-2.6,0-4.7-0.8-6.2-2.5s-2.2-4-2.2-6.9c0-3.4,0.7-6.8,2-9.9c1.3-3,3.2-5.4,5.5-7.1S371.9,251,374.7,251L374.7,251z M369.3,276.5
	c1.8,0,3.6-0.8,5.5-2.4c1.8-1.6,3.3-3.6,4.4-6.2c1.1-2.5,1.7-5.1,1.7-7.6c0-1.8-0.5-3.2-1.6-4.2c-1.1-1-2.4-1.6-4.2-1.6
	c-2,0-3.8,0.7-5.5,2.2c-1.7,1.5-3,3.4-4,6c-1,2.5-1.5,5.2-1.4,7.9c0,1.9,0.4,3.4,1.3,4.4C366.5,276,367.8,276.5,369.3,276.5
	L369.3,276.5z M410.1,271.6c0,2.7-1,4.7-3.1,6.2s-5,2.2-8.8,2.2c-3.2,0-6.1-0.6-8.6-1.8v-4c1.3,0.7,2.8,1.3,4.3,1.7
	c1.5,0.4,2.9,0.6,4.2,0.6c2.4,0,4.2-0.4,5.4-1.3c1.2-0.8,1.8-1.9,1.8-3.3c0-0.9-0.3-1.8-1-2.4c-0.7-0.7-2.1-1.6-4.3-2.7
	c-2.4-1.3-4.2-2.5-5.2-3.7c-1-1.2-1.5-2.6-1.5-4.2c-0.1-2.3,1-4.4,2.8-5.7c1.9-1.4,4.4-2.2,7.5-2.2c3.2,0,6.3,0.6,9.3,1.9l-1.5,3.5
	l-1.6-0.6c-1.9-0.7-4-1.1-6.2-1.1c-1.8,0-3.1,0.4-4.1,1.1c-1,0.8-1.5,1.7-1.5,2.9c0,0.9,0.3,1.8,1,2.4c0.7,0.7,2,1.6,4.1,2.6
	c2,1,3.5,1.9,4.3,2.6c0.9,0.7,1.5,1.5,2,2.4C409.9,269.5,410.1,270.5,410.1,271.6L410.1,271.6z M417.3,251.5h4.8l2.1,13.9
	c0.2,1.2,0.4,2.9,0.6,5.2l0.3,5.5h0.2l2.5-5.1l2.2-4l9.2-15.6h5l-19.7,32.8c-1.8,2.9-3.5,5-5.2,6.1c-1.7,1.1-3.8,1.7-6.2,1.7
	c-1.4,0-2.7-0.2-3.9-0.5v-3.4c1.2,0.3,2.5,0.5,3.7,0.5c1.5,0,2.9-0.4,4-1.3c1.1-0.9,2.2-2.1,3.2-3.8l2.2-3.5L417.3,251.5
	L417.3,251.5z"/>
</svg>
